<svg width="96" height="96" viewBox="0 0 96 96" fill="none" xmlns="http://www.w3.org/2000/svg">
<g clip-path="url(#clip0)">
<g opacity="0.16" filter="url(#filter0_f)">
<g filter="url(#filter1_d)">
<path d="M71.3333 74.6667L59.6667 68L71.3333 61.3333L83 68L71.3333 74.6667Z" fill="#141414"/>
<path d="M71.3333 61.3333L59.6667 54.6667L71.3333 48L83 54.6667L71.3333 61.3333Z" fill="#141414"/>
<path d="M71.3333 61.3333V74.6667L59.6667 68V54.6667L71.3333 61.3333Z" fill="#141414"/>
<path d="M71.3333 61.3333V74.6667L83 68V54.6667L71.3333 61.3333Z" fill="#141414"/>
<path d="M59.6667 81.3333L48 74.6667L59.6667 68L71.3333 74.6667L59.6667 81.3333Z" fill="#141414"/>
<path d="M59.6667 68L48 61.3333L59.6667 54.6667L71.3333 61.3333L59.6667 68Z" fill="#141414"/>
<path d="M59.6667 68V81.3333L48 74.6666V61.3333L59.6667 68Z" fill="#141414"/>
<path d="M59.6667 68V81.3333L71.3333 74.6666V61.3333L59.6667 68Z" fill="#141414"/>
<path d="M71.3333 61.3333L59.6667 54.6667L71.3333 48L83 54.6667L71.3333 61.3333Z" fill="#141414"/>
<path d="M71.3333 48L59.6667 41.3333L71.3333 34.6667L83 41.3333L71.3333 48Z" fill="#141414"/>
<path d="M71.3333 48V61.3333L59.6667 54.6666V41.3333L71.3333 48Z" fill="#141414"/>
<path d="M71.3333 48V61.3333L83 54.6666V41.3333L71.3333 48Z" fill="#141414"/>
<path d="M71.3333 48L59.6667 41.3334L71.3333 34.6667L83 41.3334L71.3333 48Z" fill="#141414"/>
<path d="M71.3333 34.6667L59.6667 28L71.3333 21.3333L83 28L71.3333 34.6667Z" fill="#141414"/>
<path d="M71.3333 34.6667V48L59.6667 41.3333V28L71.3333 34.6667Z" fill="#141414"/>
<path d="M71.3333 34.6667V48L83 41.3333V28L71.3333 34.6667Z" fill="#141414"/>
<path d="M71.3333 34.6667L59.6667 28L71.3333 21.3333L83 28L71.3333 34.6667Z" fill="#141414"/>
<path d="M71.3333 21.3333L59.6667 14.6667L71.3333 8L83 14.6667L71.3333 21.3333Z" fill="#141414"/>
<path d="M71.3333 21.3333V34.6667L59.6667 28V14.6667L71.3333 21.3333Z" fill="#141414"/>
<path d="M71.3333 21.3333V34.6667L83 28V14.6667L71.3333 21.3333Z" fill="#141414"/>
<path d="M59.6667 41.3333L48 34.6667L59.6667 28L71.3333 34.6667L59.6667 41.3333Z" fill="#141414"/>
<path d="M59.6667 28L48 21.3333L59.6667 14.6667L71.3333 21.3333L59.6667 28Z" fill="#141414"/>
<path d="M59.6667 28V41.3333L48 34.6666V21.3333L59.6667 28Z" fill="#141414"/>
<path d="M59.6667 28V41.3333L71.3333 34.6666V21.3333L59.6667 28Z" fill="#141414"/>
</g>
<g filter="url(#filter2_d)">
<path d="M24.6667 74.6667L13 68L24.6667 61.3333L36.3333 68L24.6667 74.6667Z" fill="#141414"/>
<path d="M24.6667 61.3333L13 54.6667L24.6667 48L36.3333 54.6667L24.6667 61.3333Z" fill="#141414"/>
<path d="M24.6667 61.3333V74.6667L13 68V54.6667L24.6667 61.3333Z" fill="#141414"/>
<path d="M24.6667 61.3333V74.6667L36.3333 68V54.6667L24.6667 61.3333Z" fill="#141414"/>
<path d="M48 88L36.3333 81.3334L48 74.6667L59.6667 81.3334L48 88Z" fill="#141414"/>
<path d="M48 74.6667L36.3333 68L48 61.3333L59.6667 68L48 74.6667Z" fill="#141414"/>
<path d="M48 74.6667V88L36.3333 81.3333V68L48 74.6667Z" fill="#141414"/>
<path d="M48 74.6667V88L59.6667 81.3333V68L48 74.6667Z" fill="#141414"/>
<path d="M24.6667 61.3333L13 54.6667L24.6667 48L36.3333 54.6667L24.6667 61.3333Z" fill="#141414"/>
<path d="M24.6667 48L13 41.3333L24.6667 34.6667L36.3333 41.3333L24.6667 48Z" fill="#141414"/>
<path d="M24.6667 48V61.3333L13 54.6666V41.3333L24.6667 48Z" fill="#141414"/>
<path d="M24.6667 48V61.3333L36.3333 54.6666V41.3333L24.6667 48Z" fill="#141414"/>
<path d="M36.3333 68L24.6667 61.3334L36.3333 54.6667L48 61.3334L36.3333 68Z" fill="#141414"/>
<path d="M36.3333 54.6667L24.6667 48L36.3333 41.3333L48 48L36.3333 54.6667Z" fill="#141414"/>
<path d="M36.3333 54.6667V68L24.6667 61.3333V48L36.3333 54.6667Z" fill="#141414"/>
<path d="M36.3333 54.6667V68L48 61.3333V48L36.3333 54.6667Z" fill="#141414"/>
<path d="M48 74.6667L36.3333 68L48 61.3333L59.6667 68L48 74.6667Z" fill="#141414"/>
<path d="M48 61.3333L36.3333 54.6667L48 48L59.6667 54.6667L48 61.3333Z" fill="#141414"/>
<path d="M48 61.3333V74.6667L36.3333 68V54.6667L48 61.3333Z" fill="#141414"/>
<path d="M48 61.3333V74.6667L59.6667 68V54.6667L48 61.3333Z" fill="#141414"/>
<path d="M48 61.3333L36.3333 54.6667L48 48L59.6667 54.6667L48 61.3333Z" fill="#141414"/>
<path d="M48 48L36.3333 41.3333L48 34.6667L59.6667 41.3333L48 48Z" fill="#141414"/>
<path d="M48 48V61.3333L36.3333 54.6666V41.3333L48 48Z" fill="#141414"/>
<path d="M48 48V61.3333L59.6667 54.6666V41.3333L48 48Z" fill="#141414"/>
<path d="M24.6667 48L13 41.3334L24.6667 34.6667L36.3333 41.3334L24.6667 48Z" fill="#141414"/>
<path d="M24.6667 34.6667L13 28L24.6667 21.3333L36.3333 28L24.6667 34.6667Z" fill="#141414"/>
<path d="M24.6667 34.6667V48L13 41.3333V28L24.6667 34.6667Z" fill="#141414"/>
<path d="M24.6667 34.6667V48L36.3333 41.3333V28L24.6667 34.6667Z" fill="#141414"/>
<path d="M24.6667 34.6667L13 28L24.6667 21.3333L36.3333 28L24.6667 34.6667Z" fill="#141414"/>
<path d="M24.6667 21.3333L13 14.6667L24.6667 8L36.3333 14.6667L24.6667 21.3333Z" fill="#141414"/>
<path d="M24.6667 21.3333V34.6667L13 28V14.6667L24.6667 21.3333Z" fill="#141414"/>
<path d="M24.6667 21.3333V34.6667L36.3333 28V14.6667L24.6667 21.3333Z" fill="#141414"/>
<path d="M36.3333 41.3333L24.6667 34.6667L36.3333 28L48 34.6667L36.3333 41.3333Z" fill="#141414"/>
<path d="M36.3333 28L24.6667 21.3333L36.3333 14.6667L48 21.3333L36.3333 28Z" fill="#141414"/>
<path d="M36.3333 28V41.3333L24.6667 34.6666V21.3333L36.3333 28Z" fill="#141414"/>
<path d="M36.3333 28V41.3333L48 34.6666V21.3333L36.3333 28Z" fill="#141414"/>
<path d="M48 48L36.3333 41.3334L48 34.6667L59.6667 41.3334L48 48Z" fill="#141414"/>
<path d="M48 34.6667L36.3333 28L48 21.3333L59.6667 28L48 34.6667Z" fill="#141414"/>
<path d="M48 34.6667V48L36.3333 41.3333V28L48 34.6667Z" fill="#141414"/>
<path d="M48 34.6667V48L59.6667 41.3333V28L48 34.6667Z" fill="#141414"/>
</g>
</g>
<g filter="url(#filter3_d)">
<path d="M71.3333 74.6667L59.6667 68L71.3333 61.3333L83 68L71.3333 74.6667Z" fill="#AB0404"/>
<path d="M71.3333 61.3333L59.6667 54.6667L71.3333 48L83 54.6667L71.3333 61.3333Z" fill="#F53333"/>
<path d="M71.3333 61.3333V74.6667L59.6667 68V54.6667L71.3333 61.3333Z" fill="#AD0003"/>
<path d="M71.3333 61.3333V74.6667L83 68V54.6667L71.3333 61.3333Z" fill="#F57C00"/>
<path d="M59.6667 81.3333L48 74.6667L59.6667 68L71.3333 74.6667L59.6667 81.3333Z" fill="#AB0404"/>
<path d="M59.6667 68L48 61.3333L59.6667 54.6667L71.3333 61.3333L59.6667 68Z" fill="#FF9D3F"/>
<path d="M59.6667 68V81.3333L48 74.6666V61.3333L59.6667 68Z" fill="#AD0003"/>
<path d="M59.6667 68V81.3333L71.3333 74.6666V61.3333L59.6667 68Z" fill="#EF6C00"/>
<path d="M71.3333 61.3333L59.6667 54.6667L71.3333 48L83 54.6667L71.3333 61.3333Z" fill="#AB0404"/>
<path d="M71.3333 48L59.6667 41.3333L71.3333 34.6667L83 41.3333L71.3333 48Z" fill="#F53333"/>
<path d="M71.3333 48V61.3333L59.6667 54.6666V41.3333L71.3333 48Z" fill="#C66900"/>
<path d="M71.3333 48V61.3333L83 54.6666V41.3333L71.3333 48Z" fill="#FF9800"/>
<path d="M71.3333 48L59.6667 41.3334L71.3333 34.6667L83 41.3334L71.3333 48Z" fill="#AB0404"/>
<path d="M71.3333 34.6667L59.6667 28L71.3333 21.3333L83 28L71.3333 34.6667Z" fill="#F53333"/>
<path d="M71.3333 34.6667V48L59.6667 41.3333V28L71.3333 34.6667Z" fill="#C88719"/>
<path d="M71.3333 34.6667V48L83 41.3333V28L71.3333 34.6667Z" fill="#FFB74D"/>
<path d="M71.3333 34.6667L59.6667 28L71.3333 21.3333L83 28L71.3333 34.6667Z" fill="#AB0404"/>
<path d="M71.3333 21.3333L59.6667 14.6667L71.3333 8L83 14.6667L71.3333 21.3333Z" fill="white"/>
<path d="M71.3333 21.3333V34.6667L59.6667 28V14.6667L71.3333 21.3333Z" fill="#AD0003"/>
<path d="M71.3333 21.3333V34.6667L83 28V14.6667L71.3333 21.3333Z" fill="#FFF3E0"/>
<path d="M59.6667 41.3333L48 34.6667L59.6667 28L71.3333 34.6667L59.6667 41.3333Z" fill="#AB0404"/>
<path d="M59.6667 28L48 21.3333L59.6667 14.6667L71.3333 21.3333L59.6667 28Z" fill="#FFFFE4"/>
<path d="M59.6667 28V41.3333L48 34.6666V21.3333L59.6667 28Z" fill="#AD0003"/>
<path d="M59.6667 28V41.3333L71.3333 34.6666V21.3333L59.6667 28Z" fill="#FFE0B2"/>
</g>
<g filter="url(#filter4_d)">
<path d="M24.6667 74.6667L13 68L24.6667 61.3333L36.3333 68L24.6667 74.6667Z" fill="#AB0404"/>
<path d="M24.6667 61.3333L13 54.6667L24.6667 48L36.3333 54.6667L24.6667 61.3333Z" fill="#F53333"/>
<path d="M24.6667 61.3333V74.6667L13 68V54.6667L24.6667 61.3333Z" fill="#01579B"/>
<path d="M24.6667 61.3333V74.6667L36.3333 68V54.6667L24.6667 61.3333Z" fill="#002F6C"/>
<path d="M48 88L36.3333 81.3334L48 74.6667L59.6667 81.3334L48 88Z" fill="#AB0404"/>
<path d="M48 74.6667L36.3333 68L48 61.3333L59.6667 68L48 74.6667Z" fill="#F53333"/>
<path d="M48 74.6667V88L36.3333 81.3333V68L48 74.6667Z" fill="#01579B"/>
<path d="M48 74.6667V88L59.6667 81.3333V68L48 74.6667Z" fill="#E65100"/>
<path d="M24.6667 61.3333L13 54.6667L24.6667 48L36.3333 54.6667L24.6667 61.3333Z" fill="#AB0404"/>
<path d="M24.6667 48L13 41.3333L24.6667 34.6667L36.3333 41.3333L24.6667 48Z" fill="#F53333"/>
<path d="M24.6667 48V61.3333L13 54.6666V41.3333L24.6667 48Z" fill="#0277BD"/>
<path d="M24.6667 48V61.3333L36.3333 54.6666V41.3333L24.6667 48Z" fill="#970B13"/>
<path d="M36.3333 68L24.6667 61.3334L36.3333 54.6667L48 61.3334L36.3333 68Z" fill="#AB0404"/>
<path d="M36.3333 54.6667L24.6667 48L36.3333 41.3333L48 48L36.3333 54.6667Z" fill="#5EB8FF"/>
<path d="M36.3333 54.6667V68L24.6667 61.3333V48L36.3333 54.6667Z" fill="#0288D1"/>
<path d="M36.3333 54.6667V68L48 61.3333V48L36.3333 54.6667Z" fill="#970B13"/>
<path d="M48 74.6667L36.3333 68L48 61.3333L59.6667 68L48 74.6667Z" fill="#AB0404"/>
<path d="M48 61.3333L36.3333 54.6667L48 48L59.6667 54.6667L48 61.3333Z" fill="#F53333"/>
<path d="M48 61.3333V74.6667L36.3333 68V54.6667L48 61.3333Z" fill="#039BE5"/>
<path d="M48 61.3333V74.6667L59.6667 68V54.6667L48 61.3333Z" fill="#FB8C00"/>
<path d="M48 61.3333L36.3333 54.6667L48 48L59.6667 54.6667L48 61.3333Z" fill="#AB0404"/>
<path d="M48 48L36.3333 41.3333L48 34.6667L59.6667 41.3333L48 48Z" fill="#F53333"/>
<path d="M48 48V61.3333L36.3333 54.6666V41.3333L48 48Z" fill="#29B6F6"/>
<path d="M48 48V61.3333L59.6667 54.6666V41.3333L48 48Z" fill="#FFA726"/>
<path d="M24.6667 48L13 41.3334L24.6667 34.6667L36.3333 41.3334L24.6667 48Z" fill="#AB0404"/>
<path d="M24.6667 34.6667L13 28L24.6667 21.3333L36.3333 28L24.6667 34.6667Z" fill="#F53333"/>
<path d="M24.6667 34.6667V48L13 41.3333V28L24.6667 34.6667Z" fill="#03A9F4"/>
<path d="M24.6667 34.6667V48L36.3333 41.3333V28L24.6667 34.6667Z" fill="#038BC9"/>
<path d="M24.6667 34.6667L13 28L24.6667 21.3333L36.3333 28L24.6667 34.6667Z" fill="#AB0404"/>
<path d="M24.6667 21.3333L13 14.6667L24.6667 8L36.3333 14.6667L24.6667 21.3333Z" fill="#8BF6FF"/>
<path d="M24.6667 21.3333V34.6667L13 28V14.6667L24.6667 21.3333Z" fill="#4FC3F7"/>
<path d="M24.6667 21.3333V34.6667L36.3333 28V14.6667L24.6667 21.3333Z" fill="#970B13"/>
<path d="M36.3333 41.3333L24.6667 34.6667L36.3333 28L48 34.6667L36.3333 41.3333Z" fill="#AB0404"/>
<path d="M36.3333 28L24.6667 21.3333L36.3333 14.6667L48 21.3333L36.3333 28Z" fill="#B6FFFF"/>
<path d="M36.3333 28V41.3333L24.6667 34.6666V21.3333L36.3333 28Z" fill="#81D4FA"/>
<path d="M36.3333 28V41.3333L48 34.6666V21.3333L36.3333 28Z" fill="#970B13"/>
<path d="M48 48L36.3333 41.3334L48 34.6667L59.6667 41.3334L48 48Z" fill="#AB0404"/>
<path d="M48 34.6667L36.3333 28L48 21.3333L59.6667 28L48 34.6667Z" fill="url(#paint0_linear)"/>
<path d="M48 34.6667V48L36.3333 41.3333V28L48 34.6667Z" fill="#B3E5FC"/>
<path d="M48 34.6667V48L59.6667 41.3333V28L48 34.6667Z" fill="#FFCC80"/>
</g>
</g>
<defs>
<filter id="filter0_f" x="6.33333" y="1.33333" width="83.3333" height="93.3333" filterUnits="userSpaceOnUse" color-interpolation-filters="sRGB">
<feFlood flood-opacity="0" result="BackgroundImageFix"/>
<feBlend mode="normal" in="SourceGraphic" in2="BackgroundImageFix" result="shape"/>
<feGaussianBlur stdDeviation="3.33333" result="effect1_foregroundBlur"/>
</filter>
<filter id="filter1_d" x="41.3333" y="8" width="48.3333" height="86.6667" filterUnits="userSpaceOnUse" color-interpolation-filters="sRGB">
<feFlood flood-opacity="0" result="BackgroundImageFix"/>
<feColorMatrix in="SourceAlpha" type="matrix" values="0 0 0 0 0 0 0 0 0 0 0 0 0 0 0 0 0 0 127 0"/>
<feOffset dy="6.66667"/>
<feGaussianBlur stdDeviation="3.33333"/>
<feColorMatrix type="matrix" values="0 0 0 0 0 0 0 0 0 0 0 0 0 0 0 0 0 0 0.25 0"/>
<feBlend mode="normal" in2="BackgroundImageFix" result="effect1_dropShadow"/>
<feBlend mode="normal" in="SourceGraphic" in2="effect1_dropShadow" result="shape"/>
</filter>
<filter id="filter2_d" x="6.33333" y="8" width="60" height="93.3333" filterUnits="userSpaceOnUse" color-interpolation-filters="sRGB">
<feFlood flood-opacity="0" result="BackgroundImageFix"/>
<feColorMatrix in="SourceAlpha" type="matrix" values="0 0 0 0 0 0 0 0 0 0 0 0 0 0 0 0 0 0 127 0"/>
<feOffset dy="6.66667"/>
<feGaussianBlur stdDeviation="3.33333"/>
<feColorMatrix type="matrix" values="0 0 0 0 0 0 0 0 0 0 0 0 0 0 0 0 0 0 0.25 0"/>
<feBlend mode="normal" in2="BackgroundImageFix" result="effect1_dropShadow"/>
<feBlend mode="normal" in="SourceGraphic" in2="effect1_dropShadow" result="shape"/>
</filter>
<filter id="filter3_d" x="41.3333" y="8" width="48.3333" height="86.6667" filterUnits="userSpaceOnUse" color-interpolation-filters="sRGB">
<feFlood flood-opacity="0" result="BackgroundImageFix"/>
<feColorMatrix in="SourceAlpha" type="matrix" values="0 0 0 0 0 0 0 0 0 0 0 0 0 0 0 0 0 0 127 0"/>
<feOffset dy="6.66667"/>
<feGaussianBlur stdDeviation="3.33333"/>
<feColorMatrix type="matrix" values="0 0 0 0 0 0 0 0 0 0 0 0 0 0 0 0 0 0 0.25 0"/>
<feBlend mode="normal" in2="BackgroundImageFix" result="effect1_dropShadow"/>
<feBlend mode="normal" in="SourceGraphic" in2="effect1_dropShadow" result="shape"/>
</filter>
<filter id="filter4_d" x="6.33333" y="8" width="60" height="93.3333" filterUnits="userSpaceOnUse" color-interpolation-filters="sRGB">
<feFlood flood-opacity="0" result="BackgroundImageFix"/>
<feColorMatrix in="SourceAlpha" type="matrix" values="0 0 0 0 0 0 0 0 0 0 0 0 0 0 0 0 0 0 127 0"/>
<feOffset dy="6.66667"/>
<feGaussianBlur stdDeviation="3.33333"/>
<feColorMatrix type="matrix" values="0 0 0 0 0 0 0 0 0 0 0 0 0 0 0 0 0 0 0.25 0"/>
<feBlend mode="normal" in2="BackgroundImageFix" result="effect1_dropShadow"/>
<feBlend mode="normal" in="SourceGraphic" in2="effect1_dropShadow" result="shape"/>
</filter>
<linearGradient id="paint0_linear" x1="37.1667" y1="28" x2="48" y2="28" gradientUnits="userSpaceOnUse">
<stop stop-color="#E6FFFF"/>
<stop offset="0.979167" stop-color="#E6FFFF"/>
<stop offset="1" stop-color="#FFFFB0"/>
</linearGradient>
<clipPath id="clip0">
<rect width="96" height="96" fill="white"/>
</clipPath>
</defs>
</svg>
